<svg width="22" height="18" viewBox="0 0 22 18" fill="none" xmlns="http://www.w3.org/2000/svg">
<path d="M21.2188 2.34375H0.78125C0.706658 2.34375 0.635121 2.31412 0.582376 2.26137C0.529632 2.20863 0.5 2.13709 0.5 2.0625V0.9375C0.5 0.862908 0.529632 0.791371 0.582376 0.738626C0.635121 0.685882 0.706658 0.65625 0.78125 0.65625H21.2188C21.2933 0.65625 21.3649 0.685882 21.4176 0.738626C21.4704 0.791371 21.5 0.862908 21.5 0.9375V2.0625C21.5 2.13709 21.4704 2.20863 21.4176 2.26137C21.3649 2.31412 21.2933 2.34375 21.2188 2.34375ZM21.2188 9.84375H0.78125C0.706658 9.84375 0.635121 9.81412 0.582376 9.76137C0.529632 9.70863 0.5 9.63709 0.5 9.5625V8.4375C0.5 8.36291 0.529632 8.29137 0.582376 8.23863C0.635121 8.18588 0.706658 8.15625 0.78125 8.15625H21.2188C21.2933 8.15625 21.3649 8.18588 21.4176 8.23863C21.4704 8.29137 21.5 8.36291 21.5 8.4375V9.5625C21.5 9.63709 21.4704 9.70863 21.4176 9.76137C21.3649 9.81412 21.2933 9.84375 21.2188 9.84375ZM21.2188 17.3438H0.78125C0.706658 17.3438 0.635121 17.3141 0.582376 17.2614C0.529632 17.2086 0.5 17.1371 0.5 17.0625V15.9375C0.5 15.8629 0.529632 15.7914 0.582376 15.7386C0.635121 15.6859 0.706658 15.6562 0.78125 15.6562H21.2188C21.2933 15.6562 21.3649 15.6859 21.4176 15.7386C21.4704 15.7914 21.5 15.8629 21.5 15.9375V17.0625C21.5 17.1371 21.4704 17.2086 21.4176 17.2614C21.3649 17.3141 21.2933 17.3438 21.2188 17.3438Z" fill="white"/>
</svg>
